<svg xmlns="http://www.w3.org/2000/svg" width="192" height="192" viewBox="0 0 192 192">
  <rect width="192" height="192" rx="40" fill="#0284C7"/>
  <path d="M96 40c-30.928 0-56 25.072-56 56 0 12.432 4.064 23.92 10.928 33.2L44 152l23.6-6.192C76.624 151.296 85.968 154 96 154c30.928 0 56-25.072 56-56s-25.072-56-56-56zm0 100c-9.328 0-18.048-2.576-25.504-7.04l-1.84-1.088-18.944 4.976 5.072-18.528-1.2-1.904C49.04 108.56 46 100.56 46 92c0-27.568 22.432-50 50-50s50 22.432 50 50-22.432 50-50 50z" fill="white"/>
  <circle cx="72" cy="92" r="8" fill="white"/>
  <circle cx="96" cy="92" r="8" fill="white"/>
  <circle cx="120" cy="92" r="8" fill="white"/>
</svg>
